<?xml version="1.0" encoding="UTF-8" standalone="no"?>
<svg
   xml:space="preserve"
   height="190"
   viewBox="0 0 190.00145 190.00438"
   width="190"
   version="1.1"
   id="svg1498"
   sodipodi:docname="ATL.svg"
   inkscape:version="1.1 (c68e22c387, 2021-05-23)"
   xmlns:inkscape="http://www.inkscape.org/namespaces/inkscape"
   xmlns:sodipodi="http://sodipodi.sourceforge.net/DTD/sodipodi-0.dtd"
   xmlns="http://www.w3.org/2000/svg"
   xmlns:svg="http://www.w3.org/2000/svg"><defs
     id="defs1502" /><sodipodi:namedview
     id="namedview1500"
     pagecolor="#ffffff"
     bordercolor="#666666"
     borderopacity="1.0"
     inkscape:pageshadow="2"
     inkscape:pageopacity="0.0"
     inkscape:pagecheckerboard="0"
     showgrid="false"
     width="192.00999px"
     fit-margin-top="0"
     fit-margin-left="0"
     fit-margin-right="0"
     fit-margin-bottom="0"
     inkscape:zoom="4.7882841"
     inkscape:cx="8.9802524"
     inkscape:cy="90.011367"
     inkscape:window-width="3840"
     inkscape:window-height="2066"
     inkscape:window-x="-11"
     inkscape:window-y="-11"
     inkscape:window-maximized="1"
     inkscape:current-layer="svg1498" /><g
     transform="matrix(1.25,0,0,-1.25,-286.01093,588.76641)"
     id="g1496"><g
       transform="translate(0.7956,0.7956)"
       id="g1494"><path
         d="m 370.59,435.4 c -20.475,12.925 -67.373,22.811 -102.36,30.943 l -40.221,-43.232 34.525,0.73755 c -17.191,-27.773 -13.688,-93.083 29.784,-101.76 -2.2381,4.2899 -6.1239,12.171 -1.0867,21.928 3.5876,6.9399 23.533,45.092 23.533,45.092 h 4.7744 c 6.4652,0 8.5935,-2.4303 5.7258,-5.8572 17.234,0.2197 27.817,6.7359 32.565,13.699 -3.6151,6.6143 -15.116,14.402 -19.778,17.558 h 24.113 c 6.9144,0 8.4738,-2.8972 6.8458,-6.0513 11.285,2.2185 17.054,17.177 1.5751,26.948"
         fill="#a5acaf"
         id="path1484" /><path
         d="m 367.83,434.08 c -27.887,15.641 -96.939,26.067 -96.939,26.067 l -29.58,-31.685 h 30.669 c -22.644,-29.919 -17.626,-90.315 15.673,-102.87 -2.3617,5.6159 -3.5582,12.134 0.6983,20.427 4.8038,9.3526 12.45,25.074 23.403,46.063 h 8.9387 c 7.4186,0 9.79,-3.1365 8.7838,-5.557 6.1004,0 17.254,0.59828 25.347,10.42 -6.7418,9.4193 -29.035,20.402 -29.035,20.402 h 38.244 c 5.6198,0 8.4287,-1.9988 7.652,-5.3844 9.7704,4.7705 7.2302,15.902 -3.8544,22.118"
         fill="#ffffff"
         id="path1486" /><path
         d="m 51.164,13.266 3.3672,4.2832 -21.525,23.172 75.703,5.7891 c -0.13977,0.27462 -0.27965,0.55543 -0.42187,0.83984 h -50.846 l 3.9375,3.7148 c -3.2145,4.5238 -5.953,9.4107 -8.248,14.525 l 42.516,-8.6875 c -0.23048,0.33838 -0.46,0.68163 -0.68555,1.0273 l -50.652,16.881 4.4531,2.5215 c -2.095,6.952 -3.451,14.153 -4.101,21.357 l 43.037,-26.121 c -0.1275,0.39478 -0.25341,0.79029 -0.37109,1.1875 l -47.459,37.447 4.377,1.0977 c 0.24519,8.1208 1.3846,16.037 3.3633,23.383 l 38.633,-45.539 c 0.06375,0.36288 0.13394,0.72745 0.21484,1.0879 l -38.264,56.151 3.6016,0.24609 c 4.4355,9.9793 10.737,18.166 18.762,23.254 -3.0968,-6.8899 -2.1102,-15.16 1.4844,-22.525 3.1139,-6.375 43.68,-87.152 43.68,-87.152 l -6.7734,-3.6289 h 63.031 c 6.4535,0 10.03,2.7105 9.959,6.3516 3.9892,-3.3665 4.8792,-13.564 -8.6113,-20.967 -29.32,-16.092 -122.17,-29.697 -122.17,-29.697 z m 67.033,49.264 0.88085,2.6133 c -2.0792,4.0677 -9.5314,18.834 -12.113,24 h 19.338 c 0.26235,3.4253 3.6645,6.3312 7.1953,7.1035 -2.0915,-2.7952 -1.2606,-5.5686 0.29883,-7.1035 h 9.1328 c 2.5378,0 1.756,3.0464 -2.373,6.2168 6.4608,-1.4761 11.286,-4.4156 14.441,-8.6133 -5.99,-9.1432 -36.801,-24.217 -36.801,-24.217 z"
         transform="matrix(0.8,0,0,-0.8,228.01,466.34)"
         id="path1488" /><path
         d="m 369.34,427.33 0.6473,-2.8638 c -4.4134,-0.82975 -12.222,-1.4908 -14.429,-1.6693 -0.10787,-0.2197 -0.2197,-0.43941 -0.33345,-0.66498 h 11.624 c 4.6116,0 6.5535,-2.1871 6.9634,-3.4444 0.60415,1.7203 0.0471,6.3338 -4.4723,8.6425 z m -12.927,5.661 c 2.5775,-0.85915 8.3778,-4.0957 10.575,-6.628 h -4.1682 c -1.6438,2.703 -6.4064,6.628 -6.4064,6.628"
         fill="#ffffff"
         id="path1490" /><path
         d="m 58.871,25.135 -6.1465,6.6562 100.47,13.902 c 0.1839,-0.36534 0.36891,-0.72555 0.54297,-1.0762 -20.54,-5.985 -61.017,-14.252 -94.859,-19.482 z m 33.775,27.139 -27.281,0.61914 c -1.3657,1.8708 -2.6331,3.8175 -3.8125,5.8281 l 30.289,-5.4102 c 0.26481,-0.34816 0.53496,-0.6963 0.80469,-1.0371 z M 83.008,68.26 53.207,78.967 c -0.662,2.4568 -1.2241,4.9502 -1.6875,7.4609 l 30.964,-16.908 c 0.16672,-0.41929 0.34199,-0.84049 0.52344,-1.2598 z m 33.084,13.395 -2.2266,4.3105 h 23.654 c 0.17653,-0.35062 0.34644,-0.69678 0.51563,-1.0352 l -21.94,-3.277 z m -37.19,6.454 -28.81,24.491 c 0.19369,2.7143 0.49973,5.397 0.9043,8.0254 l 27.953,-31.187 c -0.02213,-0.44625 -0.037,-0.8902 -0.04687,-1.334 z m 5.0918,19.395 -25.145,37.914 c 1.3192,2.4985 2.7788,4.835 4.3652,6.9805 l 21.369,-43.805 c -0.20108,-0.36044 -0.39859,-0.72697 -0.58984,-1.0898 z"
         transform="matrix(0.8,0,0,-0.8,228.01,466.34)"
         fill="#a71930"
         id="path1492" /></g></g></svg>
