<?xml version="1.0" encoding="UTF-8" standalone="no"?>
<svg
   xml:space="preserve"
   height="189.33"
   viewBox="0 0 189.32617 189.33703"
   width="189.33"
   version="1.1"
   id="svg18"
   sodipodi:docname="BUF.svg"
   inkscape:version="1.1 (c68e22c387, 2021-05-23)"
   xmlns:inkscape="http://www.inkscape.org/namespaces/inkscape"
   xmlns:sodipodi="http://sodipodi.sourceforge.net/DTD/sodipodi-0.dtd"
   xmlns="http://www.w3.org/2000/svg"
   xmlns:svg="http://www.w3.org/2000/svg"><defs
     id="defs22" /><sodipodi:namedview
     id="namedview20"
     pagecolor="#ffffff"
     bordercolor="#666666"
     borderopacity="1.0"
     inkscape:pageshadow="2"
     inkscape:pageopacity="0.0"
     inkscape:pagecheckerboard="0"
     showgrid="false"
     height="126.38px"
     inkscape:zoom="6.9077387"
     inkscape:cx="35.033172"
     inkscape:cy="63.117616"
     inkscape:window-width="3840"
     inkscape:window-height="2066"
     inkscape:window-x="-11"
     inkscape:window-y="-11"
     inkscape:window-maximized="1"
     inkscape:current-layer="svg18" /><g
     transform="matrix(1.25,0,0,-1.25,-283.98615,586.12125)"
     id="g16"><g
       transform="matrix(0.25,0,0,0.25,227.19,294.87)"
       id="g14"><path
         d="m 63.907,308.33 c 42.121,26.89 55.37,57.181 55.37,57.181 l -119.28,-17.11 50.689,90.021 101.84,8.5743 c 0,0 39.622,35.357 100.97,60.708 0,0 6.3976,11.155 41.433,31.319 0,0 32.133,18.922 68.727,31.029 0,0 24.802,8.5301 32.12,8.9591 l -2.1514,7.8866 46.764,4.0064 1.2051,4.4796 c 0,0 24.411,-1.6467 38.411,-7.8424 l 2.7572,3.672 c 0,0 32.669,-15.016 56.985,-51.913 0,0 23.584,1.3124 44.695,-8.7888 0,0 22.373,-8.8961 21.363,-34.865 0,0 -0.1514,-33.136 -10.057,-65.976 0,0 -1.5205,-5.1421 -2.9338,-8.2084 0,0 -2.0568,-4.183 -6.0254,-9.4639 0,0 -11.079,-11.407 -15.376,-21.452 0,0 -2.3281,-6.6816 -6.9528,-18.821 0,0 -3.5584,-16.694 -27.811,-17.622 0,0 -23.603,-29.868 -33.446,-38.442 l -0.8328,7.2557 c 0,0 -16.467,-15.256 -30.758,-24.266 l 4.8266,42.285 c 0,0 1.1861,7.5522 -3.609,8.0948 l -12.335,0.2966 c 0,0 4.0379,-25.452 -0.8391,-37.218 0,0 -3.1042,-18.474 -31.767,-27.269 0,0 -22.146,-7.0474 -47.484,-9.0286 l -5.4449,0.8644 -39.887,-16.347 11.66,41.824 c 0,0 -14.947,-1.5142 -16.234,0.3596 l -44.417,-19.041 17.458,50.026 11.962,6.6247 -3.8171,5.1862 -24.556,-0.2208 -9.0349,-7.0285 c -20.858,5.4323 -41.136,3.9685 -41.136,3.9685 l -103.21,-83.768 -25.862,-57.168 -30.884,41.294 9.6658,12.644 -3.672,2.7634 -14,-11.016 -20.726,-55.824 -30.524,43.08 7.8487,17.508 -1.735,10.726 c 9.0854,6.0002 14.966,10.019 19.559,15.18 2.5048,3.2303 3.8865,4.3534 6.7951,9.7856 2.7445,6.6374 2.8455,13.824 5.9055,16.101 3.8297,2.5994 6.7572,4.3471 7.7856,5.0033"
         fill="#ffffff"
         id="path2" /><path
         d="m 56.481,429.4 -39.465,-69.55 509.22,75.89 c 0,0 -17.698,13.458 7.956,34.739 l -477.72,-41.08"
         fill="#c60c3d"
         id="path4" /><g
         fill="#00338d"
         id="g12"><path
           d="m 573.39,480.17 c 0,0 -39.761,-27.187 -25.975,-50.638 0,0 -14.429,-7.9939 1.5142,-19.243 0,0 -24.644,-11.092 -18.126,19.344 l -400.35,-60.582 c 0,0 -8.5617,-36.253 -65.339,-70.582 0,0 -4.1641,-2.4417 -4.5364,-6.997 0,0 0.4038,-5.6847 -4.7635,-12.562 0,0 -6.4039,-11.161 -21.237,-20.65 l 1.06,-7.44 -6.947,-15.94 17.01,-24.42 15.388,41.54 30.468,23.4 c 0,0 29.818,46.664 78.853,64.929 0,0 43.263,18.461 106.43,8.0065 l 5.7667,5.5332 73.131,1.6152 c 0,0 2.7509,-0.6309 0.9149,-2.1199 0,0 -14.404,-11.079 -30.184,-12.505 l 1.4638,-4.4985 c 0,0 0.429,-1.5773 -0.7509,-1.9559 l -15.319,-6.0821 -10.133,-28.083 28.745,12.511 1.6089,-1.2114 c 0,0 25.016,-1.5521 62.657,6.0632 0,0 26.108,5.1673 33.376,38.979 l 49.686,2.1704 c 0,0 10.354,-2.2082 9.0539,-11.817 l -3.5585,-28.171 22.726,20.246 1.5773,-5.3124 c 0,0 17.218,18.644 21.634,29.313 0,0 18.903,-0.3786 23.565,7.262 0,0 2.1389,2.1451 8.1832,18.776 0,0 2.8328,11.685 14.511,23.18 0,0 9.0412,8.467 14.063,30.695 0,0 6.0632,32.215 6.0127,38.354 0,0 6.5175,31.868 -15.319,41.256 0,0 -16.228,8.9528 -46.607,6.467 0,0 -6.0569,21.142 -47.932,50.127 l -3.0411,-4.5301 c 0,0 -14.309,9.8488 -34.568,9.6217 l -1.0284,-2.8139 c 0,0 -12.309,0.0883 -39.162,-2.713 l 2.4984,-7.4324 c 0,0 -55.376,-2.5678 -133.93,-55.162 l -1.4322,-4.3029 -9.9876,-4.7004 5.3313,-2.9275 c 0,0 -60.014,-21.672 -103.69,-57.408 l 406.68,33.408"
           id="path6" /><path
           d="m 433.11,350.33 17.18,0.1956 c 0,0 3.4385,-22.676 1.4006,-32.789 0,0 -3.388,-15.035 -18.738,-20.915 0,0 -22.612,-9.5712 -56.518,-11.742 l -1.6404,1.407 -25.704,-10.846 8.4418,29.893 c 0,0 34.455,2.6625 44.865,5.7793 0,0 26.713,5.2493 30.714,39.016"
           id="path8" /><path
           d="m 221.47,341.46 c 0,0 -60.967,0.7319 -102.72,-48.449 0,0 -0.1135,-17.843 -21.748,-29.944 l 0.80128,-5.6342 -10.278,-14.164 18.24,-24.442 20.556,45.547 95.15,77.087"
           id="path10" /></g></g></g></svg>
