<?xml version="1.0" encoding="UTF-8" standalone="no"?>
<svg
   xml:space="preserve"
   height="379"
   viewBox="0 0 378.82007 379.64232"
   width="379"
   version="1.1"
   id="svg216"
   sodipodi:docname="CIN.svg"
   inkscape:version="1.1 (c68e22c387, 2021-05-23)"
   xmlns:inkscape="http://www.inkscape.org/namespaces/inkscape"
   xmlns:sodipodi="http://sodipodi.sourceforge.net/DTD/sodipodi-0.dtd"
   xmlns="http://www.w3.org/2000/svg"
   xmlns:svg="http://www.w3.org/2000/svg"><defs
     id="defs220" /><sodipodi:namedview
     id="namedview218"
     pagecolor="#ffffff"
     bordercolor="#666666"
     borderopacity="1.0"
     inkscape:pageshadow="2"
     inkscape:pageopacity="0.0"
     inkscape:pagecheckerboard="0"
     showgrid="false"
     height="379px"
     inkscape:zoom="3.2819549"
     inkscape:cx="63.986254"
     inkscape:cy="132.84765"
     inkscape:window-width="3840"
     inkscape:window-height="2066"
     inkscape:window-x="-11"
     inkscape:window-y="-11"
     inkscape:window-maximized="1"
     inkscape:current-layer="svg216" /><g
     transform="matrix(1.25,0,0,-1.25,-189.77996,681.68366)"
     id="g214"><g
       id="g212"><path
         d="m 424,397 c -1.6,0.812 -1.4,2.26 -0.248,3.12 13.6,10.1 22.9,23.1 22.9,43.1 0,23.7 -17,57 -83.3,57 h -171 l -38.7,-67.5 h 28.4 c 3.18,0 5.74,-2.56 5.74,-5.73 v -67.3 c 0,-3.17 -2.56,-5.73 -5.74,-5.73 h -30.5 l 39.1,-67.2 181,0.0211 c 58.3,0 83.5,30.4 83.5,63.1 0,21.6 -15.4,39.2 -31,47.1"
         fill="#ffffff"
         id="path206" /><path
         d="m 323,408 h -28.1 v 27 c 0.0264,2.83 2.32,5.12 5.16,5.12 h 22.9 c 13.5,0 18.4,-6.86 18.4,-15.8 0,-9.5 -5,-16.3 -18.4,-16.3 z m 0,-62.2 h -22.9 c -2.85,0 -5.16,2.31 -5.16,5.15 v 27 h 28.1 c 13.5,0 18.4,-6.59 18.4,-15.8 0,-9.48 -5,-16.3 -18.4,-16.3 z m 80.2,49.2 c -2.06,0.485 -1.72,3.01 -0.216,3.57 18.5,7.02 29.4,19.5 29.4,41.5 0.258,29.5 -25.8,49.8 -68.2,49.8 h -161 l -28.2,-49.8 h 19.4 c 3.84,0 6.94,-3.1 6.94,-6.94 v -80.4 c 0,-3.84 -3.1,-6.94 -6.94,-6.94 h -19.2 l 28.4,-49.6 168,0.0211 c 48,0 67.7,31.9 67.7,55.3 0,20.6 -15.2,38.4 -36.3,43.5"
         fill="#fb4f14"
         id="path208" /><path
         d="m 258,310 c -29.8,56 -37.6,120 -26.5,180 h -28.2 l -28.2,-49.8 h 19.4 c 3.84,0 6.94,-3.1 6.94,-6.94 v -61.7 c 14.5,-23.5 35.4,-46 56.5,-61.2 z m 141,174 c -34.1,-50.6 -52.6,-115 -44.3,-174 10.2,49.4 36.7,95 78,128 0.0105,0.491 0.0527,0.966 0.0527,1.47 0.174,20.3 -12.2,36.3 -33.7,44.3 z m -57.2,5.54 c -5.35,-14 -11,-30.9 -15.7,-49.9 -0.844,0.0634 -1.74,0.1 -2.66,0.1 h -22.9 c -2.84,0 -5.13,-2.28 -5.16,-5.12 v -27 h 24.1 c -1.59,-9.69 -2.88,-19.7 -3.74,-30 h -20.4 v -27 c 0,-2.85 2.31,-5.15 5.16,-5.15 h 14.1 c 0.211,-16.2 1.65,-32.8 4.68,-49.5 h -21 c -16.5,39.9 -39.3,107 -16.7,194 h 60.1"
         id="path210" /></g></g></svg>
