<?xml version="1.0" encoding="UTF-8" standalone="no"?>
<!-- Generator: Adobe Illustrator 12.0.0, SVG Export Plug-In . SVG Version: 6.00 Build 51448)  -->

<svg
   version="1.1"
   id="DENVER_BRONCOS"
   width="343.573"
   height="343.573"
   viewBox="0 0 343.573 343.573"
   overflow="visible"
   enable-background="new 0 0 343.573 200"
   xml:space="preserve"
   sodipodi:docname="DEN.svg"
   inkscape:version="1.1 (c68e22c387, 2021-05-23)"
   xmlns:inkscape="http://www.inkscape.org/namespaces/inkscape"
   xmlns:sodipodi="http://sodipodi.sourceforge.net/DTD/sodipodi-0.dtd"
   xmlns="http://www.w3.org/2000/svg"
   xmlns:svg="http://www.w3.org/2000/svg"><defs
   id="defs58" /><sodipodi:namedview
   id="namedview56"
   pagecolor="#ffffff"
   bordercolor="#666666"
   borderopacity="1.0"
   inkscape:pageshadow="2"
   inkscape:pageopacity="0.0"
   inkscape:pagecheckerboard="0"
   showgrid="false"
   inkscape:zoom="4.365"
   inkscape:cx="171.82131"
   inkscape:cy="100.11455"
   inkscape:window-width="3840"
   inkscape:window-height="2066"
   inkscape:window-x="-11"
   inkscape:window-y="-11"
   inkscape:window-maximized="1"
   inkscape:current-layer="DENVER_BRONCOS" />
<g
   id="g53"
   transform="translate(-0.00113033,71.785385)">
	<g
   id="g43">
		<path
   fill="#002244"
   d="m 0.013,53.873 c 0,0 -1.803,33.656 37.487,55.053 0,0 15.819,8.43 53.049,15.278 32.702,6.022 50.264,18.751 57.233,26.75 8.911,10.225 17.652,28.759 21.584,45.009 0,0 0,4.221 3.029,4.031 0,0 2.652,0.189 2.462,-3.598 0,0 -0.948,-25.559 6.435,-37.864 5.654,-10.107 15.792,-18.846 32.566,-24.994 0,0 11.172,8.522 27.075,8.522 11.547,0 21.773,-4.925 21.773,-4.925 0,0 20.257,7.006 22.532,17.984 0,0 0.19,2.654 -0.568,4.546 l 25.369,1.327 13.822,-12.497 c 0,0 -25.748,-1.894 -26.316,-9.279 0,0 -0.4,-3.426 6.55,-3.426 0,0 16.02,-0.266 30.937,22.042 l 8.543,-22.441 c 0,0 -6.552,-3.275 -6.419,-9.292 0,0 -0.133,-3.674 2.745,-11.023 l -10.622,-4.825 c 0,0 -5.755,-5.399 -40.233,-26.908 l 4.469,-2.875 -38.15,-16.512 c 0,0 -12.217,-19.252 -46.293,-19.386 0,0 -26.601,-43.639 -69.049,-43.639 0,0 -15.666,-0.93 -33.591,8.498 0,0 -7.173,3.275 -14.12,7.216 0,0 -14.562,10.089 -31.203,-11.908 0,0 -6.063,25.979 12.172,37.092 0,0 -17.438,3.672 -23.59,-11.285 0,0 -5.622,-11.42 -4.071,-30.542 0,0 -13.366,12.084 -13.366,35.275 0,0 -0.133,14.783 9.691,24.875 0,0 -4.956,-0.754 -12.835,4.205 C 29.105,64.354 15.342,74.314 0.013,53.873 Z"
   id="path37" />
		<path
   fill="#fb4f14"
   d="m 65.037,16.248 c 0,0 2.56,22.913 22.064,22.913 0,0 7.665,0 14.668,-2.654 7.006,-2.654 17.23,-7.866 30.862,-7.866 0,0 17.794,-1.697 27.734,17.998 0,0 22.724,-1.241 44.021,2.745 0,0 -24.233,-42.7 -66.354,-42.039 0,0 -12.312,-0.661 -28.693,7.57 l -6.626,3.124 c -4.821,2.277 -6.721,3.408 -6.721,3.408 0,0 -6.816,4.083 -13.337,3.882 0,-0.001 -8.524,0.671 -17.618,-9.081 z m -24.12,0.765 c 0,0 -11.285,31.124 13.42,45.037 4.6,2.993 11.944,5.767 20.237,5.979 0,0 33.765,-16.09 70.513,-20.342 0,0 -4.25,-9.064 -20.868,-9.064 0,0 -10.152,-0.598 -28.565,4.496 0,0 -4.988,1.264 -10.84,3.266 -8.364,2.049 -22.315,4.11 -31.32,-1.578 C 53.493,44.806 41.232,38.726 40.917,17.013 Z M 9.188,69.398 c 0,0 3.058,16.616 22.137,16.616 0,0 13.35,0.318 32.18,-11.172 0,0 -6.5,-2.528 -9.8,-4.672 0,0 -6.922,-5.236 -14.264,-3.196 0,0 -1.266,0.244 -7.976,3.092 0,0 -4.708,3.056 -11.418,3.056 -0.001,0.001 -6.818,-0.105 -10.859,-3.724 z"
   id="path39" />
		<path
   fill="#ffffff"
   d="m 112.297,123.079 c 0,0 38.008,-40.202 92.885,-26.224 0,0 2.713,31.474 36.623,33.388 0,0 11.547,0.695 22.461,-6.992 l 21.32,7.967 -22.362,-14.086 c 0,0 -7.162,6.988 -20.099,6.988 -12.938,0 -28.653,-13.111 -27.263,-31.718 0,0 -23.509,-11.786 -49.731,-17.907 l 7.859,12.416 c 0,0 -50.945,-3.234 -92.711,29.176 0,0 -39.852,-8.834 -44.651,-16.517 0,0 82.042,-66.688 187.052,-39.638 0,0 1.228,-1.801 -1.824,-4.315 0,0 -3.94,-2.952 -9.789,-4.706 0,0 25.687,-1.372 39.089,18.108 l 29.526,12.414 -3.101,2.185 c 0,0 45.14,28.066 48.16,31.991 l 6.297,2.632 c 0,0 -4.478,13.113 4.708,20.187 l -3.408,9.023 c 0,0 -15.095,-16.262 -30.154,-16.909 0,0 -11.131,-0.262 -11.131,8.667 0,0 -1.332,9.538 20.837,12.296 l -4.578,4.225 -16.909,-1.074 c 0,0 0.39,-13.761 -29.116,-24.504 0,0 -24.218,14.404 -47.16,-3.365 0,0 -41.807,10.044 -45.581,48.53 0,0 -4.595,-14.544 -14.817,-26.953 0,0 5.505,-19.627 35.266,-29.488 0,0 -26.718,-1.37 -45.492,19.993 0.001,-0.002 -12.444,-10.134 -32.206,-15.79 z"
   id="path41" />
	</g>
	<path
   fill="#002244"
   d="m 248.893,77.564 c 0,0 20.83,3.105 56.64,32.352 l -33.851,-18.49 c 0,0 -2.189,1.12 -3.562,2.338 10e-4,0.001 -7.655,-8.848 -19.227,-16.2 z"
   id="path45" />
	<path
   fill="#fb4f14"
   d="m 265.868,83.762 c 0,0 -1.742,1.44 -1.038,3.954 0,0 0.853,2.37 3.539,2.424 0,0 3.036,0.041 3.568,-3.275 l -1.438,-0.774 -3.742,2.799 1.052,-4.183 z"
   id="path47" />
	<path
   fill="#002244"
   d="m 326.031,119.147 c 0,0 -2.873,1.067 -2.873,3.643 0,0 -0.693,2.681 5.083,8.455 0,0 -8.583,-6.277 -10.19,-10.057 0,0 -1.48,-2.772 2.7,-2.772 -10e-4,0 2.54,0 5.28,0.731 z"
   id="path49" />
	<path
   fill="#002244"
   d="m 228.519,61.896 c 0,0 5.293,0.077 5.905,-1.219 0,0 1.295,-1.35 -5.828,-4.681 0,0 10.987,2.244 15.973,11.118 0,0 -7.121,-3.257 -16.05,-5.218 z"
   id="path51" />
</g>
</svg>
