<?xml version="1.0" encoding="UTF-8" standalone="no"?>
<svg
   xml:space="preserve"
   height="191.48"
   viewBox="0 0 191.47542 191.48337"
   width="191.48"
   version="1.1"
   id="svg215"
   sodipodi:docname="HOU.svg"
   inkscape:version="1.1 (c68e22c387, 2021-05-23)"
   xmlns:inkscape="http://www.inkscape.org/namespaces/inkscape"
   xmlns:sodipodi="http://sodipodi.sourceforge.net/DTD/sodipodi-0.dtd"
   xmlns="http://www.w3.org/2000/svg"
   xmlns:svg="http://www.w3.org/2000/svg"><defs
     id="defs219" /><sodipodi:namedview
     id="namedview217"
     pagecolor="#ffffff"
     bordercolor="#666666"
     borderopacity="1.0"
     inkscape:pageshadow="2"
     inkscape:pageopacity="0.0"
     inkscape:pagecheckerboard="0"
     showgrid="false"
     inkscape:zoom="4.9917091"
     inkscape:cx="95.758785"
     inkscape:cy="87.344834"
     inkscape:window-width="3840"
     inkscape:window-height="2066"
     inkscape:window-x="-11"
     inkscape:window-y="-11"
     inkscape:window-maximized="1"
     inkscape:current-layer="svg215" /><g
     transform="matrix(1.25,0,0,-1.25,-284.16967,590.01863)"
     id="g213"><g
       transform="translate(0.76317,0.76317)"
       id="g211"><path
         d="m 339.21,440.25 c 32.436,-24.684 7.752,-28.379 -17.579,-31.984 0,0 -10.689,2.9487 -29.211,12.15 -42.008,20.864 -28.783,30.695 4.233,36.644 -52.841,23.02 -96.881,-17.06 -48.297,-56.033 l -13.332,-9.53 c 10.951,-6.7135 33.641,-20.796 30.345,-42.362 l -11.262,-8.0487 34.393,-15.585 27.139,12.298 c 0.19702,11.943 21.543,18.147 30.728,42.441 50.56,11.6 37.682,56.074 -7.1562,60.011"
         fill="#ffffff"
         id="path205" /><path
         d="m 300.1,366.51 -9.7503,11.09 -11.194,-1.6691 5.1742,8.524 -9.748,11.097 12.949,-5.8279 5.1626,8.5263 2.8235,-12.122 12.947,-5.8186 -11.199,-1.6737 2.8351,-12.126 z m 15.995,39.474 c -63.467,24.512 -67.67,44.623 -28.055,51.573 -49.544,13.462 -78.443,-22.445 -29.422,-56.686 l -13.153,-9.4026 c 13.967,-9.3307 28.769,-23.152 23.747,-44.901 l -6.6277,-4.7314 25.456,-11.54 c 23.69,25.947 36.08,51.158 28.055,75.689"
         fill="#03202f"
         id="path207" /><path
         d="m 348.32,436.39 c 21.782,-17.053 6.6578,-27.948 -19.897,-30.908 6.7181,-28.319 -13.881,-54.257 -35.691,-74.342 l 19.997,9.0594 c 1.479,11.51 21.768,17.495 31.381,43.035 45.156,10.075 37.786,42.481 4.2098,53.156"
         fill="#a71930"
         id="path209" /></g></g></svg>
