<?xml version="1.0" encoding="UTF-8" standalone="no"?>
<svg
   xml:space="preserve"
   height="254"
   viewBox="0 0 254 253.99991"
   width="254"
   version="1.1"
   id="svg602"
   sodipodi:docname="LAC.svg"
   inkscape:version="1.1 (c68e22c387, 2021-05-23)"
   xmlns:inkscape="http://www.inkscape.org/namespaces/inkscape"
   xmlns:sodipodi="http://sodipodi.sourceforge.net/DTD/sodipodi-0.dtd"
   xmlns="http://www.w3.org/2000/svg"
   xmlns:svg="http://www.w3.org/2000/svg"><defs
     id="defs606" /><sodipodi:namedview
     id="namedview604"
     pagecolor="#ffffff"
     bordercolor="#666666"
     borderopacity="1.0"
     inkscape:pageshadow="2"
     inkscape:pageopacity="0.0"
     inkscape:pagecheckerboard="0"
     showgrid="false"
     inkscape:zoom="6.1535433"
     inkscape:cx="126.91875"
     inkscape:cy="69.065899"
     inkscape:window-width="3840"
     inkscape:window-height="2066"
     inkscape:window-x="-11"
     inkscape:window-y="-11"
     inkscape:window-maximized="1"
     inkscape:current-layer="svg602" /><g
     transform="matrix(1.25,0,0,-1.25,-257.37922,620.41633)"
     id="g600"><g
       transform="matrix(0.32865,0,0,0.32865,207.03,265.34)"
       id="g598"><path
         d="m 559.16,425.18 c 44.278,-56.794 54.483,-133.09 49.794,-196.05 -22.942,55.768 -70.15,128.37 -123.67,170.99 5.4239,-11.169 9.4248,-22.912 13.946,-38.824 -86.491,53.022 -186.8,85.06 -297.32,77.403 0,0 13.41,-14.489 17.641,-22.46 -60.29,-25.237 -143.12,-56.166 -214.62,-187.1 -18.888,91.15 43.98,180.55 63.931,201.94 -10.626,0.4361 -12.936,-0.1836 -24.541,0.2371 65.706,91.938 190.61,110.62 256.89,105.31 l -17.121,21.29 c 91.976,3.8633 135.51,-23.187 153.25,-30.294 71.283,-35.182 106.61,-80.302 121.81,-102.44"
         fill="#001532"
         id="path592" /><path
         d="m 312.86,547.15 -7.0151,-0.1377 c 0,0 9.8379,-14.076 14.237,-20.364 -33.507,2.7387 -162.27,6.9156 -248.68,-79.178 l -6.1276,-6.12 c 0,0 22.216,-0.7191 24.778,-0.7803 -2.1267,-2.6393 -4.284,-5.2938 -4.284,-5.2938 -25.956,-31.464 -61.498,-74.564 -73.723,-157.84 l -2.3486,-16.118 9.1647,13.472 c 46.688,68.598 107.2,116.85 179.91,143.4 l 4.6359,1.6907 -2.884,4.0086 c -7.5965,10.549 -14.994,17.32 -21.757,23.111 127.3,12.875 219.4,-21.65 292.73,-57.551 l 8.9046,-4.3758 -3.8097,9.157 c -7.0916,17.128 -13.556,28.672 -20.296,39.436 55.049,-32.65 93.712,-80.646 133.48,-142.14 l 8.1931,-12.607 -1.3158,14.986 c -14.413,166.44 -176.95,255.4 -283.81,253.25"
         fill="#0080c5"
         id="path594" /><path
         d="m 330.88,524.24 c 0,0 -6.3036,9.0653 -10.634,15.239 51.691,-0.9945 113,-23.531 161.96,-60.045 41.838,-31.189 92.726,-85.649 105.16,-170.73 -40.591,60.932 -81.297,108.22 -140.91,139.34 l -12.814,6.6862 8.0019,-12.141 c 8.4303,-12.776 15.904,-24.465 23.952,-42.098 -70.862,33.782 -167.35,68.284 -296.47,53.145 l -8.5527,-1.0098 10.236,-8.6751 c 6.3496,-5.3627 13.449,-11.529 20.663,-20.678 -67.335,-25.666 -124.17,-69.868 -169.32,-131.37 13.816,71.13 45.693,109.84 69.424,138.59 l 13.892,17.105 -7.6729,0.1836 c 0,0 -13.992,0.4513 -14.474,0.4742 97.048,89.375 242.45,70.349 243.91,70.135 l 8.6521,-1.3159 -5.0031,7.1528"
         fill="#eead1e"
         id="path596" /></g></g></svg>
