<?xml version="1.0" encoding="UTF-8" standalone="no"?>
<svg
   xml:space="preserve"
   height="192.89"
   width="192.89"
   version="1.1"
   viewBox="0 0 192.89714 192.8785"
   id="svg888"
   sodipodi:docname="NYG.svg"
   inkscape:version="1.1 (c68e22c387, 2021-05-23)"
   xmlns:inkscape="http://www.inkscape.org/namespaces/inkscape"
   xmlns:sodipodi="http://sodipodi.sourceforge.net/DTD/sodipodi-0.dtd"
   xmlns="http://www.w3.org/2000/svg"
   xmlns:svg="http://www.w3.org/2000/svg"><defs
     id="defs892" /><sodipodi:namedview
     id="namedview890"
     pagecolor="#ffffff"
     bordercolor="#666666"
     borderopacity="1.0"
     inkscape:pageshadow="2"
     inkscape:pageopacity="0.0"
     inkscape:pagecheckerboard="0"
     showgrid="false"
     inkscape:zoom="5.8192239"
     inkscape:cx="96.404608"
     inkscape:cy="74.92408"
     inkscape:window-width="3840"
     inkscape:window-height="2066"
     inkscape:window-x="-11"
     inkscape:window-y="-11"
     inkscape:window-maximized="1"
     inkscape:current-layer="svg888" /><g
     transform="translate(1.0040328,22.428021)"
     id="g886"><path
       d="m 64.75,0.013672 c -7.047,0.14507 -13.826,2.3278 -18.945,6.2422 v -4.9863 H 0.006 l -0.0097656,26.193 H 10.652234 c 2.1947,0 3.9688,1.7822 3.9688,3.9707 v 74.300998 h 31.199 V 36.308272 l 0.002,-0.73047 h 0.0039 c 0.0031,-4.1574 3.5247,-7.5312 7.873,-7.5312 4.2828,0 7.7614,3.2858 7.8555,7.3711 v 56.627 c 0,1.6554 0.31502,3.2285 0.85742,4.6895 1.9093,5.135598 6.8313,8.798798 12.625,8.798798 H 104.30685 V 80.410002 l -0.61328,-0.0039 h -6.781296 -0.002 c -2.1875,-0.0011 -3.9648,-1.7722 -3.9648,-3.9629 v -0.54883 c -0.0031,-0.05644 -0.0059,-0.10645 -0.0059,-0.16602 0.0031,-0.92177 0.0027,-1.8692 0.0059,-2.8223 v -19.049 c -0.0031,-2.3044 -0.0059,-3.7305 -0.0059,-3.7305 l 0.0059,-5.9922 v -22.639 c -0.044,-0.658 -0.152,-1.662 -0.416,-2.872 -0.454,-2.063 -1.355,-4.726 -3.158,-7.359 -3.762,-5.4868 -8.543,-8.4774 -14.976,-10.155 -3.184,-0.80395 -6.442,-1.1593 -9.645,-1.0933 z m 33.732,1.2578 v 26.117 h 8.1406 c 2.1884,0 3.959,1.7771 3.959,3.9688 v 51.068 c 0.52358,8.4086 5.5185,16.1 11.867,19.704998 6.3896,5.054 21.889,7.3674 30.26,4.4141 0,0 3.8651,-1.2164 6.041,-2.668 v 6.4805 c 0,1.5457 -0.11895,2.5109 -0.53906,3.7148 -1.0628,2.2918 -3.3952,3.4947 -7.0977,3.5859 l -136.51,-0.006 v 30.369 h 147.96 c 4.5021,-0.23199 8.7397,-0.74165 12.305,-1.748 4.8721,-1.4892 16.025,-6.7149 16.025,-23.234 0,-0.24139 -0.004,-6.3178 -0.01,-6.5625 h -0.002 L 190.80274,1.276072 h -31.947 v 67.061 c 0,0.8089 -0.014,1.6142 -0.0547,2.4043 -0.0126,0.31353 -0.0316,0.62049 -0.0566,0.92774 -0.31041,2.4392 -1.788,4.5213 -3.8887,5.7285 -1.2259,0.70227 -2.6461,1.1133 -4.1699,1.1133 -4.3987,0 -8.1269,-3.3586 -8.1113,-7.5254 l 0.041,-69.711 h -44.131 z"
       fill="#a71930"
       transform="translate(0,-0.003212)"
       id="path882" /><path
       d="M 64.932,4.4082 C 58.8083,4.50844 52.925,6.3651 48.485,9.7578 l -7.0801,5.4219 v -9.5 H 4.4089 c 0,4.8659 -0.00195,12.516 -0.00195,17.379 h 6.248 c 4.6181,0 8.3711,3.7547 8.3711,8.373 v 69.893 h 22.389 v -65.043 c 0,0 0.0035,-0.7333 0.0098,-0.70508 0.0063,-6.5808 5.5087,-11.936 12.277,-11.936 6.6152,0 12.116,5.2386 12.264,11.775 v 56.627 c 0,1.0597 0.19446,2.1259 0.58008,3.1543 1.3168,3.5459 4.732,5.9258 8.4941,5.9258 h 24.861 v -16.307 h -2.9883 c -4.6149,0 -8.3711,-3.7578 -8.3711,-8.373 h 0.002 v -0.43945 c -0.0032,-0.09406 -0.0059,-0.1875 -0.0059,-0.1875 l 0.0059,-2.9102 v -19.039 c 0,0 -0.0059,-3.725 -0.0059,-3.75 l 0.0059,-5.9824 v -22.406 c -0.03137,-0.19753 -0.3125,-2.1602 -0.3125,-2.1602 -0.472,-2.127 -1.311,-4.082 -2.496,-5.809 -3.006,-4.3864 -6.733,-6.894 -12.418,-8.3771 -2.769,-0.7006 -5.603,-1.0183 -8.386,-0.9727 z m 98.324,1.2695 v 62.656 l -0.0566,2.627 -0.0742,1.1289 -0.0195,0.125 c -0.46399,3.7215 -2.7373,7.0852 -6.0606,9.0039 -1.9344,1.1099 -4.1339,1.6973 -6.3633,1.6973 -3.405,0 -6.7188,-1.3575 -9.0859,-3.7402 -2.2135,-2.2228 -3.4355,-5.1216 -3.4355,-8.1562 0,-0.01253 0.0399,-57.604 0.043,-65.338 h -35.314 v 17.303 h 3.7305 c 4.6149,0 8.3672,3.7578 8.3672,8.373 v 33.572 17.301 c 0.42952,6.584 4.2923,13.035 9.6348,16.07 v -0.002 l 0.29102,0.16992 0.26758,0.20312 c 5.2765,4.1731 19.159,6.1589 26.057,3.7168 l 0.14062,-0.041 c 1.2698,-0.40444 3.7299,-1.3361 4.918,-2.1387 l 6.8574,-4.5879 v 14.736 c 0,1.8028 -0.13183,3.3054 -0.78711,5.1738 l -0.0664,0.19922 -0.0957,0.19726 c -1.2541,2.7057 -4.1776,5.9693 -11.094,6.1387 h -132.1 v 21.549 c 8.274,0.0157 143.11,0 143.4,0 4.1384,-0.21631 8.0249,-0.67096 11.16,-1.5488 4.8187,-1.4798 12.908,-5.9191 12.908,-19.027 0,0 -0.0758,-109.21 -0.082,-117.36 h -23.141 z"
       fill="#0b2265"
       transform="translate(0,-0.003212)"
       id="path884" /></g></svg>
