<?xml version="1.0" encoding="UTF-8" standalone="no"?>
<svg
   height="207.66667"
   width="207.66667"
   version="1.1"
   viewBox="0 0 207.66667 207.66667"
   id="svg934"
   sodipodi:docname="NYJ.svg"
   inkscape:version="1.1 (c68e22c387, 2021-05-23)"
   xmlns:inkscape="http://www.inkscape.org/namespaces/inkscape"
   xmlns:sodipodi="http://sodipodi.sourceforge.net/DTD/sodipodi-0.dtd"
   xmlns="http://www.w3.org/2000/svg"
   xmlns:svg="http://www.w3.org/2000/svg">
  <defs
     id="defs938" />
  <sodipodi:namedview
     id="namedview936"
     pagecolor="#ffffff"
     bordercolor="#666666"
     borderopacity="1.0"
     inkscape:pageshadow="2"
     inkscape:pageopacity="0.0"
     inkscape:pagecheckerboard="0"
     showgrid="false"
     inkscape:zoom="7.0434905"
     inkscape:cx="103.78377"
     inkscape:cy="62.043102"
     inkscape:window-width="3840"
     inkscape:window-height="2066"
     inkscape:window-x="-11"
     inkscape:window-y="-11"
     inkscape:window-maximized="1"
     inkscape:current-layer="svg934" />
  <path
     d="m 104.3525,100.39044 h -1.20228 l -0.3279,0.3279 a 59.22523,59.22523 0 0 1 0,6.23 l 0.3279,0.3279 h 1.20228 l 0.3279,-0.3279 a 29.67545,29.67545 0 0 0 0,-6.23 z"
     fill="#115740"
     id="path920" />
  <path
     d="m 104.51645,100.39044 h -1.20228 l -0.3279,0.3279 a 29.67545,29.67545 0 0 0 0,6.23 l 0.3279,0.3279 h 1.20228 l 0.3279,-0.3279 a 59.22523,59.22523 0 0 1 0,-6.23 q -0.3279,-0.16399 -0.3279,-0.3279 z"
     fill="#115740"
     id="path922" />
  <path
     d="m 104.43448,100.39044 h -1.20228 l -0.3279,0.3279 v 6.23 l 0.3279,0.3279 h 1.20228 l 0.3279,-0.3279 v -6.23 z"
     fill="#115740"
     id="path924" />
  <path
     d="m 102.57642,106.51137 a 1.76289,1.76289 0 0 0 0.98368,-0.3279 3.81391,3.81391 0 0 0 0.65579,-0.98368 l 1.31158,-2.51387 a 1.74419,1.74419 0 0 0 0.32789,-0.87439 c 0,-0.43719 -0.21859,-0.65578 -0.76508,-0.65578 a 1.241,1.241 0 0 0 -0.87439,0.3279 10.58331,10.58331 0 0 0 -0.76509,0.98368 l -1.31157,2.51386 a 1.74431,1.74431 0 0 0 -0.32791,0.87439 c 0,0.4372 0.32789,0.65579 0.7651,0.65579 z"
     fill="#115740"
     id="path926" />
  <path
     d="m 177.87654,101.64618 h -13.2251 a 4.09057,4.09057 0 0 0 0.54649,-1.96738 c 0,-0.98368 -1.093,-1.63947 -3.06036,-1.63947 -2.40456,0 -3.60684,0.98369 -3.60684,2.07667 0,0.98368 1.093,1.31157 6.77649,2.62317 5.68349,1.3116 7.76017,2.62316 7.76017,5.6835 a 10.44945,10.44945 0 0 1 -3.279,7.323 c -2.73246,2.73246 -6.88579,4.48123 -16.94124,4.48123 -12.0228,0 -15.52034,-1.96737 -15.52034,-6.1207 a 7.39758,7.39758 0 0 1 0.98367,-3.82544 h 13.44381 a 4.06507,4.06507 0 0 0 -0.54649,2.186 c 0,1.093 0.98367,1.74878 3.06035,1.74878 2.29527,0 3.60686,-0.87439 3.60686,-2.29528 0,-1.31157 -1.20229,-1.63947 -7.21369,-3.16964 -5.68352,-1.42089 -7.323,-2.51387 -7.323,-5.57421 a 9.96375,9.96375 0 0 1 3.16965,-6.66719 c 2.95105,-2.951 7.10439,-4.48123 16.94124,-4.48123 10.92982,0 14.97386,1.74878 14.97386,5.9021 a 6.35172,6.35172 0 0 1 -0.54648,3.71615 z m -54.32125,17.05052 a 42.15117,42.15117 0 0 0 -4.59053,-2.84175 29.727,29.727 0 0 0 -9.29035,-3.06036 l 7.10439,-13.44368 h -9.07176 l 3.60685,-6.8858 h 34.31964 l -3.60686,6.8858 h -8.19738 z m -12.8972,13.00649 c 0.1093,0.1093 0.21859,0.2186 0.21859,0.32791 h 1.20228 a 1.509,1.509 0 0 1 0.4372,-0.32791 c 0.10929,-0.65577 0.21859,-1.31157 0.32791,-1.85806 1.20227,0 2.40455,0 3.60684,-0.1093 3.93474,-0.1093 7.76018,-0.21859 11.69491,-0.54649 l 0.6558,0.76508 v 0 c -0.87439,2.951 -4.59053,6.55789 -10.38334,9.61824 a 33.58457,33.58457 0 0 1 -14.20877,3.49754 h -0.10929 a 33.58454,33.58454 0 0 1 -14.208782,-3.49754 c -5.79281,-3.06035 -9.50894,-6.55789 -10.38333,-9.61825 l 0.65579,-0.76508 c 3.93473,0.21859 7.76017,0.43719 11.69491,0.54649 1.31157,0 2.73245,0.1093 4.044,0.1093 a 5.5512,5.5512 0 0 0 0.3279,1.85806 1.5084,1.5084 0 0 0 0.43719,0.32791 h 1.20227 c 0.1093,-0.10929 0.21859,-0.21859 0.21859,-0.32791 a 19.16592,19.16592 0 0 1 0,-6.12069 c -0.10929,-0.10929 -0.21859,-0.21859 -0.21859,-0.32789 h -1.20224 a 1.509,1.509 0 0 1 -0.43719,0.32789 c -0.1093,0.65579 -0.2186,1.20228 -0.3279,1.85807 -1.31158,0 -2.73246,0 -4.044,0.1093 -3.93474,0.10929 -7.76018,0.21859 -11.69491,0.54649 l -0.65579,-0.87439 v -0.21859 c 0.87439,-2.951 4.59052,-6.5579 10.38333,-9.61825 a 32.00054,32.00054 0 0 1 14.208822,-3.49754 h 0.10929 a 33.23446,33.23446 0 0 1 14.20871,3.49753 c 5.79283,3.06035 9.50895,6.66719 10.38334,9.61825 v 0.32788 l -0.65579,0.87439 c -3.93473,-0.21859 -7.76017,-0.43718 -11.69491,-0.54649 -1.20228,0 -2.40456,-0.10929 -3.60684,-0.10929 a 5.1054,5.1054 0 0 0 -0.3279,-1.85807 1.5089,1.5089 0 0 0 -0.43721,-0.3279 h -1.20228 c -0.10929,0.10929 -0.21858,0.21858 -0.21858,0.3279 a 18.47748,18.47748 0 0 1 0,6.0114 z M 76.666358,92.57442 h 31.915092 l -3.60684,6.77649 H 88.579868 l -1.85807,3.27894 H 103.2258 l -3.497512,6.5579 h -16.39474 l -1.85807,3.38828 h 16.94123 l -0.1093,0.1093 a 31.306,31.306 0 0 0 -9.50894,3.1697 36.28877,36.28877 0 0 0 -5.46491,3.49754 h -20.98527 z m -32.13368,27.54316 c -10.92983,0 -15.41106,-2.62316 -15.41106,-7.54158 0,-2.51386 0.65579,-4.26262 2.07667,-6.99509 l 1.74877,-3.279 h 14.09948 l -3.49755,6.66724 a 6.0633,6.0633 0 0 0 -0.76509,2.40457 c 0,0.98369 0.4372,1.63948 1.74877,1.63948 1.85807,0 2.73246,-1.20228 3.93474,-3.49755 l 8.96245,-17.15982 h 16.504 l -7.54157,14.31806 c -2.186,4.044 -3.49754,6.23 -5.57421,8.416 -3.16964,3.38826 -8.416,5.02773 -16.28543,5.02773 z m 5.02771,-45.796 h 5.4649 l 0.98368,4.26264 2.186,-4.26264 h 4.80912 l -5.24631,9.83685 h -5.24633 l -0.98369,-4.59053 -2.40456,4.59053 h -4.80912 z m 27.43387,0 -1.31158,2.51387 h -6.01139 l -0.7651,1.20228 h 5.5742 l -1.20228,2.40455 h -5.5742 l -0.6558,1.20228 h 6.23 l -1.31156,2.51387 h -12.02282 l 5.24631,-9.83685 z m 6.77648,0 -1.20227,4.59053 3.38824,-4.59053 h 5.57421 l -1.31163,4.59056 3.60685,-4.59053 h 5.3556 l -8.85315,9.83685 h -5.90205 l 0.87439,-3.82544 -3.27895,3.82544 h -5.9021 l 1.85806,-9.83685 z m 19.455102,0 h 6.0114 l -0.1093,3.06036 3.06035,-3.06033 h 5.57421 l -7.86947,6.77649 -1.63948,3.06036 h -6.23 l 1.74878,-3.279 -0.5465,-6.5579 z m 25.79437,0.5465 a 2.18645,2.18645 0 0 1 1.42089,2.07666 6.57675,6.57675 0 0 1 -0.6558,2.51387 11.31313,11.31313 0 0 1 -2.07666,3.16965 c -1.31157,1.31157 -3.49755,1.85806 -6.66719,1.85806 a 10.91357,10.91357 0 0 1 -4.91842,-0.76508 2.18644,2.18644 0 0 1 -1.42089,-2.07667 6.57688,6.57688 0 0 1 0.6558,-2.51386 11.31363,11.31363 0 0 1 2.07666,-3.16965 c 1.31157,-1.31158 3.49755,-1.85807 6.66719,-1.85807 a 11.541,11.541 0 0 1 4.91842,0.76509 z m 13.99018,-0.5465 a 3.65381,3.65381 0 0 1 2.51385,0.65579 2.0778,2.0778 0 0 1 0.5465,1.42088 3.64776,3.64776 0 0 1 -0.98368,2.51387 3.33075,3.33075 0 0 1 -1.093,0.76508 9.1817,9.1817 0 0 1 -1.53017,0.43719 c 0.98368,0.3279 1.42089,0.76509 1.42089,1.31158 a 2.84973,2.84973 0 0 1 -0.3279,1.20228 l -0.76509,1.53018 h -6.12073 l 0.98368,-1.96738 a 1.55334,1.55334 0 0 0 0.21859,-0.65578 c 0,-0.4372 -0.21859,-0.65579 -0.76509,-0.65579 h -0.87439 l -1.74876,3.16965 h -5.9021 l 5.24632,-9.83684 h 9.18106 z m 12.78788,0 -2.40455,4.48123 4.91842,-4.48123 h 5.57422 l -5.4649,4.80913 0.65579,5.02772 h -5.90208 l -0.3279,-4.37193 -2.29527,4.37193 h -6.12071 l 5.24632,-9.83685 z m 45.90528,24.37355 C 198.206,87.00022 182.90426,73.11933 160.82602,61.42443 141.26164,51.15043 118.1997,47.54355 104.31883,47.54355 h -0.65578 c -13.990202,0 -37.161422,3.60684 -56.616512,13.88087 -22.18755,11.58561 -37.38,25.46649 -40.98685,37.27071 a 26.43032,26.43032 0 0 0 -0.43719,5.137 v 0 a 26.43032,26.43032 0 0 0 0.43719,5.137 c 3.4976,11.6949 18.7993,25.57581 40.8776,37.27072 19.67363,10.38333 42.84487,13.99018 56.835002,13.88087 h 0.43718 c 13.88088,0 37.05211,-3.60685 56.5072,-13.88087 22.07823,-11.58562 37.38,-25.4665 40.87755,-37.2707 a 26.42953,26.42953 0 0 0 0.43718,-5.137 v 0 a 26.48638,26.48638 0 0 0 -0.32788,-5.137 z"
     fill="#115740"
     id="path928" />
  <path
     d="m 104.92585,104.10659 0.2186,-0.4372 a 1.18834,1.18834 0 0 0 0.10931,-0.54649 c 0,-0.3279 -0.2186,-0.43719 -0.65581,-0.43719 h -0.87439 l -1.31157,2.29526 h 1.093 a 1.80621,1.80621 0 0 0 1.42088,-0.87438 z"
     fill="#115740"
     id="path930" />
  <path
     d="m 88.74803,115.96543 a 32.30012,32.30012 0 0 1 9.50895,-3.16965 l 0.1093,-0.21859 H 81.42505 l 1.85807,-3.38823 h 16.504 l 3.49754,-6.5579 h -16.504 l 1.85807,-3.278999 h 16.39473 l 3.60685,-6.77648 H 76.61593 L 62.29786,119.46298 h 20.876 a 44.4293,44.4293 0 0 1 5.57421,-3.49755 z M 73.88347,92.575611 h -16.504 l -8.96249,17.159819 c -1.20228,2.29525 -2.186,3.49754 -3.93473,3.49754 a 1.52935,1.52935 0 0 1 -1.74877,-1.63947 5.57981,5.57981 0 0 1 0.76509,-2.40457 l 3.49754,-6.66719 H 32.89663 l -1.74877,3.27895 a 12.84491,12.84491 0 0 0 -2.07667,6.99509 c 0,4.91841 4.48123,7.54158 15.41106,7.54158 7.86947,0 13.11579,-1.63948 16.28543,-4.80912 2.186,-2.186 3.49755,-4.37194 5.57421,-8.416 l 7.54158,-14.536669 z m 89.73387,-0.65579 c -9.94616,0 -13.99018,1.53018 -16.94123,4.48123 a 9.96375,9.96375 0 0 0 -3.16964,6.667169 c 0,3.06035 1.63946,4.15333 7.323,5.57421 6.0114,1.53017 7.21369,1.85806 7.21369,3.16965 0,1.42088 -1.31159,2.29526 -3.60686,2.29526 -2.07666,0 -3.06035,-0.6558 -3.06035,-1.74878 a 5.376,5.376 0 0 1 0.5465,-2.186 h -13.44372 a 9.02027,9.02027 0 0 0 -0.98368,3.82544 c 0,4.15334 3.49755,6.12069 15.52034,6.12069 10.16474,0 14.20879,-1.74877 16.94124,-4.48121 a 10.26009,10.26009 0 0 0 3.279,-7.323 c 0,-3.06036 -2.07666,-4.37193 -7.76018,-5.68351 -5.68352,-1.31158 -6.77649,-1.74877 -6.77649,-2.62316 0,-1.092999 1.20229,-2.076669 3.60684,-2.076669 1.96738,0 3.06037,0.65579 3.06037,1.63948 a 4.09071,4.09071 0 0 1 -0.5465,1.967369 h 13.22509 a 9.20731,9.20731 0 0 0 0.76509,-3.825439 c -0.21862,-4.044 -4.15334,-5.79281 -15.19248,-5.79281 z m -54.977,39.784559 -0.3279,0.32791 h -1.20228 l -0.3279,-0.32791 a 59.23045,59.23045 0 0 0 0,-6.23 l 0.3279,-0.3279 h 1.20228 l 0.3279,0.3279 a 29.67535,29.67535 0 0 1 -10e-6,6.23 z m -3.71614,0 -0.3279,0.32791 h -1.20228 l -0.32791,-0.32791 v -6.23 l 0.32791,-0.3279 h 1.20228 l 0.3279,0.3279 a 59.23045,59.23045 0 0 1 -1e-5,6.23 z m -3.71615,0 -0.32789,0.32791 h -1.2023 l -0.3279,-0.32791 a 29.67535,29.67535 0 0 1 0,-6.23 l 0.3279,-0.3279 h 1.20228 l 0.32789,0.3279 a 59.23045,59.23045 0 0 0 0,6.23 z m 10.82054,-6.4486 a 1.5088,1.5088 0 0 0 0.4372,0.32791 c 0.10929,0.65579 0.21859,1.31157 0.32789,1.85807 1.20228,0 2.40455,0 3.60685,0.10929 3.93473,0.1093 7.76017,0.21859 11.6949,0.5465 l 0.6558,-0.87439 v -0.32794 c -0.87439,-2.951 -4.59053,-6.5579 -10.38334,-9.61825 a 33.58457,33.58457 0 0 0 -14.20877,-3.49754 h -0.1093 a 33.58453,33.58453 0 0 0 -14.20877,3.49754 c -5.79283,3.06039 -9.509,6.66725 -10.38335,9.61825 v 0.21859 l 0.65579,0.87439 c 3.93473,-0.21859 7.76017,-0.43719 11.69491,-0.5465 1.31157,0 2.73245,-0.1093 4.044,-0.1093 a 5.551,5.551 0 0 1 0.3279,-1.85806 1.50868,1.50868 0 0 1 0.43719,-0.3279 h 1.20227 c 0.1093,0.1093 0.21859,0.21859 0.21859,0.3279 a 19.16483,19.16483 0 0 0 0,6.1207 c -0.10929,0.10929 -0.21859,0.21859 -0.21859,0.3279 h -1.20225 a 1.50885,1.50885 0 0 0 -0.43719,-0.3279 c -0.10929,-0.65579 -0.21859,-1.20228 -0.3279,-1.85807 -1.31158,0 -2.73246,0 -4.044,-0.1093 -3.93474,-0.10929 -7.76018,-0.21859 -11.69491,-0.54649 l -0.65579,0.76509 c 0.87439,2.951 4.59052,6.55787 10.38333,9.61824 a 32.00057,32.00057 0 0 0 14.20877,3.49754 h 0.1093 a 33.23456,33.23456 0 0 0 14.20874,-3.4975 c 5.79281,-3.06036 9.50895,-6.66719 10.38334,-9.61825 v 0 l -0.65579,-0.76509 c -3.93474,0.2186 -7.76017,0.43721 -11.69491,0.5465 -1.20228,0 -2.40456,0.1093 -3.60685,0.1093 a 5.10525,5.10525 0 0 1 -0.32789,1.85807 1.5089,1.5089 0 0 1 -0.4372,0.3279 h -1.20228 c -0.10929,-0.1093 -0.21859,-0.2186 -0.21859,-0.3279 a 19.16483,19.16483 0 0 0 0,-6.1207 c 0.1093,-0.1093 0.21859,-0.21859 0.21859,-0.3279 a 4.0976,4.0976 0 0 0 1.20228,0.1093 z m 90.06175,-21.42245 a 26.4305,26.4305 0 0 1 -0.4372,5.137 c -3.49754,11.6949 -18.79928,25.57579 -40.87753,37.27069 -19.56438,10.274 -42.62632,13.88087 -56.50719,13.88087 h -0.43718 c -13.88087,0 -37.1614,-3.60685 -56.83509,-13.88087 C 24.91786,134.65542 9.6161199,120.77454 6.1185799,108.97034 a 26.42877,26.42877 0 0 1 -0.4372,-5.137 v 0 a 26.42877,26.42877 0 0 1 0.4372,-5.136999 C 9.6161099,86.892101 24.80856,73.011221 46.99611,61.425611 66.56049,51.151581 89.62242,47.544731 103.5033,47.544731 h 0.65577 c 13.88088,0 36.94282,3.60685 56.50719,13.88088 22.07824,11.58561 37.38,25.46649 40.8776,37.27071 a 26.40918,26.40918 0 0 1 0.54649,5.136999 z m 5.02772,-6.339299 -0.10931,-0.3279 c -3.93474,-13.33438 -19.89229,-28.19895 -43.7193,-40.76824 -20.43879,-10.71123 -44.59371,-14.53667 -59.13037,-14.53667 h -0.65578 c -14.53667,0 -38.69158,3.82544 -59.13035,14.53667 -23.93632,12.56933 -39.7845601,27.43386 -43.71930014,40.76825 l -0.1093,0.3279 a 37.04139,37.04139 0 0 0 0,12.678589 l 0.1093,0.3279 c 3.93474004,13.33438 19.89228014,28.199 43.71930014,40.76825 20.43877,10.71123 44.59368,14.53667 59.13034,14.53667 h 0.65577 c 14.53667,0 38.69158,-3.82544 59.13036,-14.53667 23.827,-12.5693 39.78457,-27.43386 43.7193,-40.76825 l 0.10932,-0.3279 a 31.06438,31.06438 0 0 0 0.54649,-6.3393 40.21628,40.21628 0 0 0 -0.54649,-6.339309 z m -155.64073,-17.81561 0.98369,4.59052 h 5.137 l 5.24631,-9.83684 h -4.8091 l -2.186,4.26263 -0.87437,-4.37193 h -5.4649 l -5.24631,9.83685 h 4.80912 z m 94.21508,12.89719 h -34.31964 l -3.60684,6.88579 h 9.07176 l -7.10439,13.443689 a 36.78249,36.78249 0 0 1 9.29035,3.06035 46.73932,46.73932 0 0 1 4.59052,2.84175 l 10.274,-19.236479 h 8.19738 l 3.60684,-6.9951 z m 4.80911,-8.30667 2.29527,-4.37193 0.3279,4.37193 h 5.9021 l -0.65581,-5.02772 5.46491,-4.80913 h -5.57421 l -4.91842,4.48123 2.4046,-4.48123 h -6.0114 l -5.24632,9.83684 z m -78.69474,0 1.31158,-2.51386 h -6.23 l 0.65579,-1.20228 h 5.68351 l 1.3116,-2.40458 h -5.68351 l 0.65579,-1.20228 h 6.01141 l 1.31157,-2.51386 H 65.13961 l -5.24631,9.83684 z m 36.287,0 1.63947,-3.06035 7.86947,-6.77649 h -5.57416 l -3.06035,3.06035 0.10929,-3.06035 h -6.0114 l 0.43721,6.66719 -1.74878,3.279 h 6.33933 z m 12.67864,-3.93472 1.31158,-2.51387 a 2.38006,2.38006 0 0 1 0.76508,-0.98368 1.241,1.241 0 0 1 0.87439,-0.3279 c 0.54649,0 0.76509,0.21859 0.76509,0.65579 a 1.74442,1.74442 0 0 1 -0.3279,0.87439 l -1.31158,2.51386 a 3.81459,3.81459 0 0 1 -0.65579,0.98368 1.336,1.336 0 0 1 -0.98368,0.32789 c -0.5465,0 -0.76509,-0.21859 -0.76509,-0.65578 a 2.95778,2.95778 0 0 1 0.3279,-0.87438 z m -5.46491,-1.20228 a 6.13344,6.13344 0 0 0 -0.6558,2.51386 2.09226,2.09226 0 0 0 1.42089,2.07667 12.71512,12.71512 0 0 0 4.91842,0.76508 c 3.16964,0 5.35562,-0.65578 6.66719,-1.85806 a 11.31313,11.31313 0 0 0 2.07666,-3.16965 6.13333,6.13333 0 0 0 0.6558,-2.51387 2.09223,2.09223 0 0 0 -1.42089,-2.07666 12.71491,12.71491 0 0 0 -4.91842,-0.76509 c -3.16964,0 -5.35562,0.65579 -6.66719,1.85807 a 13.23026,13.23026 0 0 0 -2.07666,3.16965 z m -33.22665,5.137 3.27895,-3.82544 -0.87439,3.82544 h 5.90211 l 8.85315,-9.83684 h -5.35563 l -3.60685,4.59052 1.31158,-4.59052 h -5.57421 l -3.38825,4.59052 1.20228,-4.59052 h -5.6835 l -1.85807,9.83684 z m 56.28861,-7.43227 h 0.87438 c 0.43719,0 0.6558,0.10929 0.6558,0.43719 a 1.18848,1.18848 0 0 1 -0.10929,0.54649 l -0.2186,0.4372 c -0.3279,0.54649 -0.65579,0.87439 -1.20229,0.87439 h -1.093 z m -3.93475,7.43227 1.74878,-3.16965 h 0.87436 c 0.54649,0 0.76507,0.21859 0.76507,0.65579 a 1.55366,1.55366 0 0 1 -0.21859,0.65578 l -0.98368,1.96736 h 6.01142 l 0.76507,-1.53018 a 2.84969,2.84969 0 0 0 0.3279,-1.20228 c 0,-0.65578 -0.4372,-1.093 -1.42089,-1.31157 a 5.10622,5.10622 0 0 0 1.53017,-0.43719 3.92565,3.92565 0 0 0 1.093,-0.76508 3.46245,3.46245 0 0 0 0.98368,-2.51386 1.88816,1.88816 0 0 0 -0.5465,-1.42089 3.6538,3.6538 0 0 0 -2.51387,-0.65578 h -9.181 l -5.24635,9.83683 h 6.01141 z"
     fill="#ffffff"
     id="path932" />
</svg>
