<?xml version="1.0" encoding="UTF-8" standalone="no"?>
<svg
   height="143.93829"
   width="143.93829"
   version="1.1"
   viewBox="0 0 143.9383 143.93829"
   id="svg1187"
   sodipodi:docname="SEA.svg"
   inkscape:version="1.1 (c68e22c387, 2021-05-23)"
   xmlns:inkscape="http://www.inkscape.org/namespaces/inkscape"
   xmlns:sodipodi="http://sodipodi.sourceforge.net/DTD/sodipodi-0.dtd"
   xmlns="http://www.w3.org/2000/svg"
   xmlns:svg="http://www.w3.org/2000/svg">
  <defs
     id="defs1191" />
  <sodipodi:namedview
     id="namedview1189"
     pagecolor="#ffffff"
     bordercolor="#666666"
     borderopacity="1.0"
     inkscape:pageshadow="2"
     inkscape:pageopacity="0.0"
     inkscape:pagecheckerboard="0"
     showgrid="false"
     inkscape:zoom="10.85882"
     inkscape:cx="71.923101"
     inkscape:cy="31.863499"
     inkscape:window-width="3840"
     inkscape:window-height="2066"
     inkscape:window-x="-11"
     inkscape:window-y="-11"
     inkscape:window-maximized="1"
     inkscape:current-layer="svg1187" />
  <g
     id="g1200"
     transform="translate(-0.00128251,40.109147)">
    <path
       d="m 120.6583,52.2 a 108.31728,108.31728 0 0 0 -18.84,-1.56006 h -86.52 c -5.4,0 -11.04,0 -13.8,-4.43994 -3,-4.44006 -1.32,-8.88 3.48,-17.64 C 5.3383,27.84 20.2183,0 20.2183,0 a 27.16881,27.16881 0 0 0 3,3.12 c 1.56,1.2 3.12,1.8 7.2,1.8 7.32,0 54.72,-0.12 55.2,-0.12 9.6,0 19.32,0.96 25.56,7.92 3.36,0.36 13.8,1.68 22.56,5.88 5.04,2.4 8.4,6 9.72,10.44 a 16.10984,16.10984 0 0 1 0.48,4.2 c 0,4.2 -1.56,8.88 -4.56,13.8 -6.6,10.2 -12.6,13.8 -12.84,13.92 a 14.77676,14.77676 0 0 1 -7.32,2.76 24.2012,24.2012 0 0 0 4.32,-7.32 c 1.07999,-3.72 -2.88,-4.2 -2.88,-4.2 z"
       fill="#ffffff"
       id="path1173" />
    <path
       d="m 132.6583,20.88 c -9.96,-4.8 -22.68,-5.76 -22.68,-5.76 -5.52,-6.84 -14.88,-7.8 -24.36,-7.8 0,0 -47.76,0.12 -55.2,0.12 -8.64,0 -9.48,-3.48 -9.48,-3.48 l -11.64,21.72 h 30.12 c 9.48,0 9.96,-0.96 16.2,-5.64 6.72,-4.92 12,-6.6 18.36,-6.6 6.24,0 10.44,1.31995 17.52,4.44 6.96,3.12 10.68,4.68 14.88,2.87994 0,0 -3.24,4.44006 -13.2,0.24005 -9.96,-4.08 -12.6,-5.04 -18.72,-5.04 -5.88,0 -12.72,2.88 -21.24,11.4 l 10.2,8.16 c 0,0 -2.4,3.72 -3.96,6 -1.56,2.28 -1.44,3.84 -0.6,5.04 0.84,1.08 1.92,1.56 5.64,1.56 h 37.32 a 114.03973,114.03973 0 0 1 19.32,1.68 c 9.6,1.92 3.36,9.96 3.36,9.96 0,0 6.48,-4.2 12.72,-14.16 C 144.29828,34.56 142.49829,25.56 132.6583,20.88 Z"
       fill="#002244"
       id="path1175" />
    <path
       d="m 115.13829,22.56 c -4.44,-1.08 -0.6,-3.6 -0.6,-3.6 a 13.12381,13.12381 0 0 0 -9.48,8.04 c -0.12,0.24 -0.24,0.36 -0.36,0.6 -3.6,7.2 -6.84,6.84 -12.96,6.84 h -10.44 c -8.52,0 -12.48,4.2 -16.56,11.4 h 4.8 c 4.44,-6.6 7.68,-8.28 16.44,-8.76 19.8,0 35.52,5.64 43.92,9.96 11.88,-19.92 -5.76,-23.16006 -14.76,-24.48 z"
       fill="#ffffff"
       id="path1177" />
    <path
       d="m 78.29829,45.72 c 2.16,-3.36 6.72,-4.44 13.92,-4.08 18,1.08 28.32,4.56006 36.24,7.56006 -9.84,-5.76 -27.48,-9.96 -39.72,-9.96 -5.88,0 -11.16,1.08 -14.16,6.48 z"
       fill="#ffffff"
       id="path1179" />
    <path
       d="m 97.49829,25.92 c -2.28,3.36 -5.4,4.44 -14.16,3.84 -10.08,-0.72 -7.44,-5.04 -6.36,-7.08 v 0 c 0.36,-0.6 0.84,-1.68 1.44,-2.64 -7.8,-0.48 -13.44,5.52 -13.44,5.52 5.76,5.76 9.6,6.36 14.88,6.36 h 9.84 c 9.12,0 11.28,-4.08 12.12,-6 a 13.02829,13.02829 0 0 1 -4.32,0 z"
       fill="#ffffff"
       id="path1181" />
    <path
       d="m 93.05829,24.96 a 2.0275,2.0275 0 0 1 -0.6,-0.24 4.37811,4.37811 0 0 1 -3.84,1.32 c -2.04,-0.24 -3.12,-1.68 -2.52,-3.12 a 1.70544,1.70544 0 0 1 0.24,-0.72 c -0.96,-0.36 -2.04,-0.72 -3,-1.08 -2.04,3.24 -3.12,5.4 3.84,6 4.32,0.36 5.52,-0.36 6.48,-1.92 -0.24,-0.12 -0.36001,-0.12 -0.6,-0.24 z"
       fill="#69be28"
       id="path1183" />
    <path
       d="m 57.8983,37.44 c -3.6,6.24 -5.04,7.68 -2.52,10.68 h -40.08 c -6,0 -9.84,-0.24 -11.76,-3.24 -1.92,-3 -1.56,-5.76 3.6,-15.12006 h 34.08 c 5.88,0 7.44,0.36 10.56,2.76 3.23999,2.52006 6.12,4.92006 6.12,4.92006 z"
       fill="#a5acaf"
       id="path1185" />
  </g>
</svg>
