<?xml version="1.0" encoding="UTF-8" standalone="no"?>
<!-- Generator: Adobe Illustrator 10.0, SVG Export Plug-In . SVG Version: 3.0.0 Build 76)  -->

<svg
   width="460"
   height="460"
   version="1.1"
   id="svg1266"
   sodipodi:docname="SF.svg"
   inkscape:version="1.1 (c68e22c387, 2021-05-23)"
   xmlns:inkscape="http://www.inkscape.org/namespaces/inkscape"
   xmlns:sodipodi="http://sodipodi.sourceforge.net/DTD/sodipodi-0.dtd"
   xmlns="http://www.w3.org/2000/svg"
   xmlns:svg="http://www.w3.org/2000/svg">
  <defs
     id="defs1270" />
  <sodipodi:namedview
     id="namedview1268"
     pagecolor="#ffffff"
     bordercolor="#666666"
     borderopacity="1.0"
     inkscape:pageshadow="2"
     inkscape:pageopacity="0.0"
     inkscape:pagecheckerboard="0"
     showgrid="false"
     inkscape:zoom="3.2095588"
     inkscape:cx="229.93814"
     inkscape:cy="135.84422"
     inkscape:window-width="3840"
     inkscape:window-height="2066"
     inkscape:window-x="-11"
     inkscape:window-y="-11"
     inkscape:window-maximized="1"
     inkscape:current-layer="svg1266" />
  <g
     id="g1281"
     transform="translate(0,94)">
    <ellipse
       cx="230"
       cy="136"
       rx="230"
       ry="136"
       fill="#ffffff"
       id="ellipse1248" />
    <ellipse
       cx="229.5"
       cy="137"
       rx="223"
       ry="130"
       fill="#000000"
       id="ellipse1250" />
    <ellipse
       cx="230.5"
       cy="138.5"
       rx="194.5"
       ry="120"
       fill="#b3995d"
       id="ellipse1252" />
    <ellipse
       cx="231"
       cy="136.5"
       rx="179"
       ry="112"
       fill="#aa0000"
       id="ellipse1254" />
    <path
       fill="#000000"
       d="m 370.848,121.879 h -0.492 v -4.074 h -3.578 -67.422 c -1.523,-7.99 -6.121,-15.4 -12.676,-21.186 -6.457,-7.426 -15.844,-13.01 -26.523,-15.131 l -4.43,-0.91 c -10.25,-2.154 -18.34,-3.859 -50.906,-3.695 0,0 -6.266,-0.215 -12.344,-1.02 -1.539,-0.389 -2.891,-0.855 -4.051,-1.355 0.449,-2.709 5.41,-6.443 11,-7.168 0.582,-0.105 35.824,-6.59 72.102,16.904 l 0.891,0.574 h 23.84 V 48.334 h -4.078 v -4.076 h -32.719 c 0,0 -3.887,2.967 -5.512,4.211 -9.418,-2.359 -55.559,-12.455 -95.395,4.984 -16.742,6.92 -27.133,19.98 -26.398,33.24 0.375,6.686 3.578,12.516 9.109,17.041 4.07,5.08 10.469,9.045 18.805,11.445 11.797,3.398 21.781,4.799 31.465,5.354 v 1.17 15.465 h 4.082 v 4.076 h 12.438 c 5.152,0 6.477,2.855 6.793,3.918 -15.875,-1.039 -40.023,-5.559 -57.793,-22.008 l -0.668,-0.721 h -0.125 c -0.98,-0.936 -1.945,-1.904 -2.887,-2.92 l -1.063,-1.154 h -17.895 v 51.936 h 4.078 v 4.07 h 14.59 c 2.141,0.148 8.922,-0.609 13.602,-14.273 7.59,2.641 26.293,8.273 49.328,8.898 v 32.309 c -0.805,10.848 -24.703,14.246 -33.031,14.574 l -3.438,0.133 v 16.063 h 4.074 v 4.07 h 104.926 v -15.367 l -2.676,-0.711 c -0.48,-0.121 -0.934,-0.246 -1.398,-0.375 v -3.516 l -3.277,-0.281 c -5.898,-0.523 -10.438,-1.547 -13.961,-2.797 -6.594,-3.703 -7.723,-6.703 -7.863,-7.188 v -17.227 h 30.754 c 3.246,0.492 6.027,1.914 8.387,3.766 4.43,5.453 6.445,11.688 6.48,11.789 l 0.785,2.523 2.641,0.016 h 0.082 c 0.367,0.922 0.563,1.508 0.566,1.539 l 0.785,2.531 h 2.641 13.883 v -62.488 h -3.582 -0.492 v -4.082 h -3.59 -12.859 l -0.594,2.863 c -4.313,20.762 -28.32,20.457 -49.668,17.344 4.18,-1.137 8.387,-2.512 12.582,-4.18 11.43,-4.543 20.004,-10.723 25.355,-17.957 h 46.082 c 3.215,0.102 5.945,0.902 8.242,2.406 4.836,7.094 4.348,17.523 4.344,17.648 l -0.199,3.777 h 3.781 0.508 c -0.004,0.168 -0.008,0.277 -0.008,0.293 l -0.207,3.781 3.789,0.008 h 14.578 v -48.377 h -3.59 z"
       id="path1256" />
    <path
       fill="#ffffff"
       d="m 297.34,134.674 h 38.195 c 21.816,0.695 20.238,27.914 20.238,27.914 h 11 v -41.199 h -65.922 c 10e-4,0 -0.156,9.22 -3.511,13.285"
       id="path1258" />
    <path
       fill="#ffffff"
       d="m 219.598,169.861 v 31.637 c -1.133,16.582 -36.465,17.957 -36.465,17.957 v 9.027 h 97.754 v -9.027 c -29.051,-2.512 -29.18,-17.316 -29.18,-17.316 v -21.125 h 34.723 c 15.883,2.266 21.988,22.168 21.988,22.168 h 10.293 v -55.32 h -9.945 c -6.914,33.324 -57.98,18.332 -61.758,19.168 0,-0.001 -12.578,3.14 -27.41,2.831"
       id="path1260" />
    <path
       fill="#ffffff"
       d="m 250.098,115.434 c 13.27,3.889 14.504,14.014 6.734,23.494 -9.941,9.383 -25.125,9.77 -25.125,9.77 0,0 -51.125,5.527 -80.961,-26.75 h -12.738 v 44.762 h 11.164 c 0,0 6.805,1.043 11.168,-15.359 0,0 52.496,21.363 102.43,1.539 48.363,-19.211 29.957,-61.287 -3.32,-67.881 -12.797,-2.535 -17.887,-4.725 -54.613,-4.535 0,0 -6.629,-0.211 -13.086,-1.086 -20.242,-5.059 -8.73,-18.145 3.141,-19.68 0,0 36.469,-7.189 74.512,17.451 h 19.195 V 47.842 h -27.926 l -5.93,4.535 c 0,0 -51.766,-14.455 -94.75,4.361 -28.891,11.945 -34.555,41.824 -3,50.92 27.789,8.01 45.504,4.654 73.664,5.729 7.87,0.301 14.71,0.611 19.441,2.047"
       id="path1262" />
    <path
       fill="#ffffff"
       d="m 208.387,133.582 h -13.266 v -11.879 c 10.281,0 31.25,0.084 46.086,0 14.93,0 16.918,8.629 10.629,14.465 -5.93,5.502 -18.352,9.42 -33.055,6.744 0,0 -1.211,-9.33 -10.394,-9.33"
       id="path1264" />
  </g>
</svg>
